<svg width="43" height="53" viewBox="0 0 43 53" fill="none" xmlns="http://www.w3.org/2000/svg">
<path d="M4.39481 47.2931L0.530045 0H42.9961L39.1261 47.2856L21.7372 52.5458L4.39481 47.2931Z" fill="#E44F26"/>
<path d="M21.763 48.5255L35.8152 44.2749L39.1209 3.86719H21.763V48.5255Z" fill="#F1662A"/>
<path d="M21.763 21.4082H14.7283L14.2433 15.4686H21.763V9.66797H21.7441H8.43324L8.56052 11.2256L9.86598 27.2089H21.763V21.4082Z" fill="#EBEBEB"/>
<path d="M21.7631 36.4702L21.739 36.4777L15.8189 34.7343L15.4405 30.1084H12.563H10.1034L10.8482 39.2138L21.739 42.513L21.7631 42.5055V36.4702Z" fill="#EBEBEB"/>
<path d="M21.7441 21.4062V27.2069H28.2903L27.6745 34.7304L21.7441 36.4756V42.5109L32.6435 39.2136L32.7227 38.234L33.9713 22.9639L34.1021 21.4062H32.6693H21.7441Z" fill="white"/>
<path d="M21.7441 9.66699V13.2701V15.4545V15.4677H34.5682H34.5854L34.692 14.1653L34.9345 11.2246L35.0618 9.66699H21.7441Z" fill="white"/>
</svg>
