<svg width="81" height="76" viewBox="0 0 81 76" fill="none" xmlns="http://www.w3.org/2000/svg">
<path d="M36.9411 4.11072C38.8027 3.1254 41.1762 3.12111 42.9914 4.11072L70.785 18.7544C72.5231 19.6679 73.6866 21.4796 73.6703 23.3523V52.7135C73.682 54.6645 72.4045 56.5153 70.5708 57.4113L42.9263 71.9877C42.8085 72.0483 42.6891 72.1053 42.5674 72.1586C42.446 72.2118 42.3226 72.2614 42.1974 72.307C42.0723 72.3525 41.9456 72.3942 41.8177 72.4319C41.6895 72.4695 41.5603 72.5033 41.4296 72.5329C41.2992 72.5626 41.1679 72.5881 41.0356 72.6096C40.9032 72.6312 40.7703 72.6486 40.6367 72.6617C40.5033 72.6749 40.3693 72.6839 40.2351 72.6888C40.1011 72.6937 39.9668 72.6944 39.8326 72.6909C39.6982 72.6874 39.5644 72.6798 39.4306 72.6681C39.297 72.6562 39.1639 72.6402 39.0313 72.6201C38.8988 72.6 38.7671 72.5758 38.6362 72.5475C38.5053 72.5193 38.3757 72.4871 38.2471 72.4506C38.1185 72.4143 37.9914 72.3739 37.8657 72.3296C37.7401 72.2854 37.6163 72.2374 37.494 72.1853C37.3717 72.1334 37.2514 72.0776 37.1333 72.0181C37.015 71.9586 36.8989 71.8956 36.7851 71.8289L28.4895 67.3486C27.924 67.0332 27.2888 66.7831 26.8885 66.272C27.2423 65.8284 27.8706 65.7718 28.3824 65.576C29.5367 65.2324 30.5931 64.7061 31.6543 64.1492C31.9219 63.9754 32.25 64.0405 32.5059 64.1972L39.5799 68.0206C40.085 68.2926 40.5968 67.9336 41.0297 67.7052L68.1739 53.3877C68.5092 53.2356 68.6951 52.9049 68.6674 52.5614V23.4826C68.7045 23.0913 68.4649 22.7345 68.0856 22.5757L40.5108 8.06254C40.4711 8.03698 40.4298 8.01435 40.3868 7.99465C40.3436 7.97495 40.2991 7.95837 40.2532 7.94491C40.2075 7.93164 40.1608 7.9215 40.1134 7.91467C40.0658 7.90784 40.0182 7.90433 39.97 7.90414C39.922 7.90414 39.8744 7.90745 39.8268 7.91409C39.7792 7.92072 39.7326 7.93067 39.6867 7.94393C39.6408 7.957 39.5961 7.97339 39.5529 7.99309C39.5097 8.0126 39.4684 8.03503 39.4287 8.06039L11.8933 22.604C11.5212 22.7628 11.2651 23.1151 11.3116 23.5066V52.5852C11.279 52.9289 11.4746 53.2529 11.8119 53.4008L19.17 57.2832C20.5522 57.979 22.2486 58.3705 23.7704 57.8594C23.8531 57.8303 23.9343 57.7983 24.0145 57.7634C24.0944 57.7285 24.1729 57.6909 24.2499 57.6505C24.3269 57.6099 24.4023 57.5668 24.4758 57.5211C24.5492 57.4753 24.6206 57.4269 24.6903 57.376C24.7598 57.3253 24.8273 57.272 24.8924 57.2162C24.9577 57.1606 25.0205 57.1027 25.0811 57.0426C25.1416 56.9825 25.1996 56.9203 25.2552 56.8561C25.3107 56.792 25.3635 56.7258 25.4136 56.6579C25.4637 56.5899 25.5109 56.5202 25.5553 56.449C25.5998 56.3776 25.6413 56.3049 25.6799 56.2305C25.7185 56.1562 25.754 56.0807 25.7864 56.0039C25.8187 55.9272 25.848 55.8494 25.8741 55.7705C25.9001 55.6915 25.9231 55.612 25.9427 55.5314C25.9623 55.451 25.9786 55.3699 25.9916 55.2883C26.0047 55.2066 26.0143 55.1247 26.0208 55.0423C26.0273 54.96 26.0302 54.8775 26.03 54.795L26.0369 25.8904C26.0043 25.4618 26.437 25.1074 26.8816 25.1509H30.4186C30.8841 25.1399 31.2493 25.6011 31.1865 26.0316L31.1794 55.119C31.1819 57.7028 30.0462 60.5128 27.4888 61.7808C24.3382 63.3032 20.4428 62.9834 17.3292 61.5198L9.41757 57.431C7.55588 56.561 6.30641 54.6818 6.31789 52.7332V23.3718C6.31893 23.2532 6.32415 23.1346 6.33354 23.0164C6.34294 22.8982 6.3565 22.7801 6.37425 22.6627C6.39199 22.5453 6.41391 22.4284 6.44 22.3123C6.46609 22.1963 6.49635 22.0812 6.53059 21.9669C6.56503 21.8527 6.60323 21.7396 6.6456 21.6278C6.68797 21.516 6.7341 21.4056 6.78441 21.2966C6.8345 21.1877 6.88856 21.0804 6.94638 20.9747C7.0042 20.8692 7.06578 20.7656 7.1309 20.6638C7.19603 20.5619 7.26491 20.4623 7.33713 20.3647C7.40956 20.2674 7.48512 20.1722 7.56423 20.0793C7.64334 19.9865 7.72558 19.8963 7.81116 19.8086C7.89653 19.721 7.98504 19.6359 8.07667 19.5538C8.16809 19.4717 8.26244 19.3925 8.35971 19.316C8.45677 19.2397 8.55655 19.1666 8.65903 19.0963C8.76131 19.0263 8.8661 18.9594 8.97339 18.8958C9.08047 18.8322 9.18963 18.7721 9.3011 18.7154L36.9411 4.11072ZM44.9553 24.4636C48.9741 24.2461 53.2767 24.32 56.8928 26.1709C59.6921 27.5889 61.2442 30.5642 61.2954 33.4743C61.2163 33.8658 60.7787 34.0833 60.3786 34.055C59.2151 34.0527 58.0469 34.0703 56.8788 34.0484C56.383 34.0658 56.0969 33.6395 56.034 33.2307C55.699 31.8388 54.8869 30.462 53.486 29.7899C51.3359 28.783 48.8413 28.8329 46.4958 28.8548C44.7831 28.9418 42.9425 29.0787 41.4927 30.0184C40.3758 30.7318 40.0407 32.1933 40.4386 33.3286C40.811 34.1616 41.8417 34.429 42.6818 34.6769C47.5267 35.8601 52.6576 35.7645 57.4117 37.3021C59.3779 37.9372 61.3025 39.1726 61.9773 41.0974C62.8569 43.6767 62.4728 46.7608 60.5112 48.8314C58.9196 50.5365 56.6018 51.4413 54.2865 51.9676C51.2079 52.6092 48.0154 52.6244 44.8902 52.3372C41.9511 52.0241 38.8935 51.302 36.6246 49.4316C34.684 47.857 33.7393 45.4037 33.8322 43.0374C33.8556 42.6372 34.2814 42.3588 34.6932 42.3914H38.1839C38.6539 42.3609 38.9981 42.7394 39.0215 43.1525C39.238 44.4576 39.7708 45.8713 41.0086 46.6325C43.3961 48.0723 46.391 47.9722 49.1229 48.0136C51.387 47.92 53.9281 47.8917 55.7781 46.491C56.7554 45.693 57.0416 44.3597 56.7788 43.2113C56.4924 42.2413 55.3826 41.7911 54.4519 41.4714C49.6698 40.0577 44.4807 40.5709 39.7452 38.9703C37.8232 38.3352 35.9638 37.1347 35.2261 35.2881C34.1954 32.6782 34.6678 29.4441 36.8388 27.4432C38.933 25.4532 42.0047 24.6854 44.9134 24.4113L44.9553 24.4636Z" fill="#8CC84B"/>
</svg>
