<svg width="83" height="72" viewBox="0 0 83 72" fill="none" xmlns="http://www.w3.org/2000/svg">
<path d="M48.4479 35.9481C48.4479 36.0467 48.4451 36.1455 48.4395 36.244C48.4339 36.3426 48.4257 36.441 48.4144 36.5393C48.4034 36.6375 48.3894 36.7356 48.3727 36.8331C48.3561 36.9308 48.3366 37.0281 48.3144 37.1248C48.2921 37.2218 48.2672 37.318 48.2396 37.4138C48.2119 37.5096 48.1816 37.6046 48.1486 37.6991C48.1155 37.7936 48.0798 37.8872 48.0416 37.9802C48.0031 38.0732 47.9623 38.1653 47.9188 38.2564C47.8751 38.3477 47.8291 38.4379 47.7805 38.5271C47.7318 38.6164 47.6806 38.7045 47.627 38.7915C47.5734 38.8787 47.5174 38.9646 47.4588 39.0491C47.4003 39.1339 47.3395 39.2173 47.2762 39.2993C47.2131 39.3814 47.1476 39.462 47.0797 39.5413C47.0121 39.6206 46.942 39.6985 46.8699 39.7748C46.7977 39.8511 46.7233 39.9259 46.647 39.999C46.5705 40.0721 46.4922 40.1436 46.4116 40.2133C46.3312 40.2833 46.2489 40.3513 46.1646 40.4175C46.0803 40.4839 45.994 40.5484 45.9063 40.611C45.8183 40.6736 45.7286 40.7342 45.6372 40.7931C45.5457 40.852 45.4528 40.9088 45.3581 40.9635C45.2637 41.0185 45.1675 41.0711 45.0698 41.122C44.9723 41.1728 44.8733 41.2213 44.773 41.2678C44.6727 41.3145 44.5711 41.3588 44.4683 41.401C44.3654 41.4433 44.2614 41.4833 44.1564 41.521C44.0511 41.5588 43.945 41.5943 43.838 41.6276C43.7308 41.6608 43.6227 41.6918 43.514 41.7205C43.405 41.7491 43.2954 41.7754 43.185 41.7994C43.0745 41.8234 42.9637 41.845 42.8521 41.8643C42.7404 41.8836 42.6284 41.9005 42.5158 41.9149C42.4034 41.9293 42.2904 41.9415 42.1771 41.9511C42.0641 41.9608 41.9506 41.9681 41.8369 41.9728C41.7232 41.9777 41.6095 41.9801 41.4958 41.9801C41.3819 41.9801 41.2682 41.9777 41.1547 41.9728C41.041 41.9681 40.9276 41.9608 40.8143 41.9511C40.701 41.9415 40.5882 41.9293 40.4756 41.9149C40.3632 41.9005 40.251 41.8836 40.1395 41.8643C40.028 41.845 39.9169 41.8234 39.8066 41.7994C39.6962 41.7754 39.5866 41.7491 39.4777 41.7205C39.3687 41.6918 39.2609 41.6608 39.1537 41.6276C39.0465 41.5943 38.9403 41.5588 38.8353 41.521C38.7302 41.4833 38.6263 41.4433 38.5234 41.401C38.4205 41.3588 38.3189 41.3145 38.2186 41.2678C38.1183 41.2213 38.0193 41.1728 37.9216 41.122C37.8241 41.0711 37.728 41.0185 37.6333 40.9635C37.5388 40.9088 37.4457 40.852 37.3545 40.7931C37.263 40.7342 37.1733 40.6736 37.0854 40.611C36.9974 40.5484 36.9114 40.4839 36.8271 40.4175C36.7428 40.3513 36.6604 40.2833 36.5798 40.2133C36.4994 40.1436 36.4209 40.0721 36.3446 39.999C36.2681 39.9259 36.194 39.8511 36.1218 39.7748C36.0496 39.6985 35.9796 39.6206 35.9117 39.5413C35.844 39.462 35.7785 39.3814 35.7152 39.2993C35.6521 39.2173 35.5911 39.1339 35.5328 39.0491C35.4742 38.9646 35.4182 38.8787 35.3646 38.7915C35.3108 38.7045 35.2598 38.6164 35.2112 38.5271C35.1625 38.4379 35.1163 38.3477 35.0728 38.2564C35.0294 38.1653 34.9883 38.0732 34.9501 37.9802C34.9116 37.8872 34.8759 37.7936 34.8431 37.6991C34.81 37.6046 34.7795 37.5096 34.7521 37.4138C34.7244 37.318 34.6993 37.2218 34.6773 37.1248C34.655 37.0281 34.6356 36.9308 34.6189 36.8331C34.6023 36.7356 34.5882 36.6375 34.5772 36.5393C34.566 36.441 34.5575 36.3426 34.5519 36.244C34.5465 36.1455 34.5437 36.0467 34.5437 35.9481C34.5437 35.8493 34.5465 35.7506 34.5519 35.652C34.5575 35.5534 34.566 35.4551 34.5772 35.3569C34.5882 35.2586 34.6023 35.1606 34.6189 35.0629C34.6356 34.9654 34.655 34.8681 34.6773 34.7713C34.6993 34.6744 34.7244 34.5782 34.7521 34.4824C34.7795 34.3866 34.81 34.2915 34.8431 34.197C34.8759 34.1025 34.9116 34.0088 34.9501 33.916C34.9883 33.823 35.0294 33.7309 35.0728 33.6396C35.1163 33.5485 35.1625 33.4583 35.2112 33.369C35.2598 33.2798 35.3108 33.1916 35.3646 33.1045C35.4182 33.0175 35.4742 32.9316 35.5328 32.8468C35.5911 32.7623 35.6521 32.6788 35.7152 32.5967C35.7785 32.5148 35.844 32.434 35.9117 32.3546C35.9796 32.2755 36.0496 32.1977 36.1218 32.1214C36.194 32.0451 36.2681 31.9703 36.3446 31.8971C36.4209 31.824 36.4994 31.7526 36.5798 31.6826C36.6604 31.6129 36.7428 31.5448 36.8271 31.4786C36.9114 31.4123 36.9974 31.3478 37.0854 31.2851C37.1733 31.2225 37.263 31.1618 37.3545 31.1031C37.4457 31.0442 37.5388 30.9874 37.6333 30.9325C37.728 30.8777 37.8241 30.8248 37.9216 30.7742C38.0193 30.7234 38.1183 30.6748 38.2186 30.6281C38.3189 30.5816 38.4205 30.5372 38.5234 30.495C38.6263 30.4528 38.7302 30.4129 38.8353 30.375C38.9403 30.3373 39.0465 30.3019 39.1537 30.2685C39.2609 30.2353 39.3687 30.2044 39.4777 30.1757C39.5866 30.147 39.6962 30.1208 39.8066 30.0968C39.9169 30.0728 40.028 30.051 40.1395 30.0319C40.251 30.0126 40.3632 29.9957 40.4756 29.9813C40.5882 29.9668 40.701 29.9546 40.8143 29.9449C40.9276 29.9353 41.041 29.928 41.1547 29.9231C41.2682 29.9183 41.3819 29.916 41.4958 29.916C41.6095 29.916 41.7232 29.9183 41.8369 29.9231C41.9506 29.928 42.0641 29.9353 42.1771 29.9449C42.2904 29.9546 42.4034 29.9668 42.5158 29.9813C42.6284 29.9957 42.7404 30.0126 42.8521 30.0319C42.9637 30.051 43.0745 30.0728 43.185 30.0968C43.2954 30.1208 43.405 30.147 43.514 30.1757C43.6227 30.2044 43.7308 30.2353 43.838 30.2685C43.945 30.3019 44.0511 30.3373 44.1564 30.375C44.2614 30.4129 44.3654 30.4528 44.4683 30.495C44.5711 30.5372 44.6727 30.5816 44.773 30.6281C44.8733 30.6746 44.9723 30.7234 45.0698 30.7742C45.1675 30.8248 45.2637 30.8777 45.3581 30.9325C45.4528 30.9874 45.5457 31.0442 45.6372 31.1031C45.7286 31.1618 45.8183 31.2225 45.9063 31.2851C45.994 31.3478 46.0803 31.4123 46.1646 31.4785C46.2489 31.5448 46.3312 31.6129 46.4116 31.6826C46.4922 31.7526 46.5705 31.824 46.647 31.8971C46.7233 31.9703 46.7977 32.0451 46.8699 32.1214C46.942 32.1977 47.0121 32.2755 47.0797 32.3546C47.1476 32.434 47.2131 32.5148 47.2762 32.5967C47.3395 32.6788 47.4003 32.7623 47.4588 32.847C47.5174 32.9316 47.5734 33.0175 47.627 33.1045C47.6806 33.1916 47.7318 33.2798 47.7805 33.369C47.8291 33.4583 47.8751 33.5485 47.9188 33.6396C47.9623 33.7309 48.0031 33.823 48.0416 33.916C48.0798 34.0088 48.1155 34.1025 48.1486 34.197C48.1816 34.2915 48.2119 34.3866 48.2396 34.4824C48.2672 34.5782 48.2921 34.6744 48.3144 34.7713C48.3366 34.8681 48.3561 34.9654 48.3727 35.0629C48.3894 35.1606 48.4034 35.2586 48.4144 35.3569C48.4257 35.4551 48.4339 35.5534 48.4395 35.652C48.4451 35.7506 48.4479 35.8493 48.4479 35.9481Z" fill="#00D8FF"/>
<mask id="mask0_98_58" style="mask-type:luminance" maskUnits="userSpaceOnUse" x="2" y="7" width="79" height="58">
<path d="M2.56854 7.34473H80.4225V64.7047H2.56854V7.34473Z" fill="white"/>
</mask>
<g mask="url(#mask0_98_58)">
<path d="M41.5004 23.6836C50.1421 23.6836 58.17 24.8457 64.2231 26.7987C71.5162 29.1518 76 32.7185 76 35.9482C76 39.3136 71.248 43.1028 63.4162 45.5347C57.4954 47.3733 49.7038 48.3329 41.5004 48.3329C33.0901 48.3329 25.126 47.4322 19.1381 45.5146C11.5629 43.0878 7 39.2497 7 35.9482C7 32.7447 11.2813 29.2055 18.4718 26.8559C24.5473 24.8708 32.7731 23.6836 41.4998 23.6836H41.5004Z" stroke="#00D8FF" stroke-width="7.47646"/>
</g>
<mask id="mask1_98_58" style="mask-type:luminance" maskUnits="userSpaceOnUse" x="2" y="3" width="79" height="66">
<path d="M2.56848 3H80.4225V69H2.56848V3Z" fill="white"/>
</mask>
<g mask="url(#mask1_98_58)">
<path d="M29.1915 29.85C33.8547 22.8344 39.3467 16.8977 44.5627 12.9587C50.8474 8.21348 56.8271 6.35498 60.052 7.96823C63.4122 9.64954 64.6308 15.4009 62.8327 22.9744C61.4746 28.6999 58.2273 35.5047 53.8006 42.1649C49.2622 48.993 44.0654 55.009 38.92 58.9109C32.4095 63.8489 26.1151 65.6359 22.8198 63.9865C19.6212 62.3873 18.3983 57.1424 19.9325 50.1312C21.2289 44.2069 24.4824 36.9359 29.1896 29.8514L29.1915 29.85Z" stroke="#00D8FF" stroke-width="7.47646"/>
<path d="M29.2027 42.1821C24.5271 35.1743 21.3426 28.0802 20.0135 22.192C18.4138 15.0977 19.5449 9.67374 22.7663 8.05524C26.1233 6.36905 32.4745 8.32505 39.1381 13.4588C44.1765 17.3402 49.3499 23.1788 53.7889 29.8321C58.3403 36.6537 61.7517 43.5647 63.0786 49.3808C64.7579 56.7411 63.3987 62.3644 60.1058 64.0189C56.9105 65.6239 51.0633 63.9248 44.8286 59.2696C39.5609 55.3364 33.9249 49.2591 29.2023 42.1808L29.2027 42.1821Z" stroke="#00D8FF" stroke-width="7.47646"/>
</g>
</svg>
