<svg width="248" height="176" viewBox="0 0 248 176" fill="none" xmlns="http://www.w3.org/2000/svg">
<path d="M15 29.5185C15 20.682 22.1634 13.5186 31 13.5186H214V151.878C214 162.924 205.046 171.878 194 171.878H15V29.5185Z" fill="#6B6B6B"/>
<path d="M0 16C0 7.16344 7.16344 0 16 0H199V138.36C199 149.405 190.046 158.36 179 158.36H0V16Z" fill="#111827"/>
<path d="M37.1661 105.428H33.4019V109.193H31.8249V105.428H28.0607V103.851H31.8249V100.087H33.4019V103.851H37.1661V105.428ZM46.3747 104.95C46.043 105.488 45.5862 105.923 45.0042 106.255C44.4285 106.586 43.8027 106.752 43.1268 106.752C41.9941 106.752 41.0304 106.339 40.2356 105.513C39.4471 104.681 39.0529 103.595 39.0529 102.256C39.0529 100.891 39.4565 99.7744 40.2638 98.9046C41.0711 98.0347 42.1099 97.5998 43.3802 97.5998C44.6569 97.5998 45.7614 98.0973 46.6938 99.0923C47.6263 100.087 48.0925 101.808 48.0925 104.255C48.0925 106.74 47.667 108.595 46.8159 109.822C45.9648 111.048 44.7476 111.661 43.1643 111.661C42.1318 111.661 41.2682 111.38 40.5735 110.817C39.8789 110.247 39.4565 109.387 39.3063 108.235L40.9209 108.104C41.1774 109.549 41.9378 110.272 43.2019 110.272C44.2407 110.272 45.0355 109.8 45.5862 108.855C46.1369 107.904 46.4122 106.602 46.4122 104.95H46.3747ZM43.5304 105.278C44.3565 105.278 45.0104 104.987 45.4923 104.405C45.9804 103.817 46.2245 103.075 46.2245 102.181C46.2245 101.273 45.9742 100.516 45.4735 99.909C44.9792 99.2957 44.344 98.989 43.568 98.989C42.7857 98.989 42.1255 99.3145 41.5873 99.9653C41.0491 100.61 40.7801 101.392 40.7801 102.312C40.7801 103.182 41.0429 103.895 41.5686 104.452C42.1005 105.003 42.7544 105.278 43.5304 105.278ZM58.7561 99.158C57.4044 100.641 56.2341 102.475 55.2454 104.659C54.2566 106.843 53.6746 109.099 53.4994 111.427H51.7722C51.816 109.556 52.276 107.503 53.1521 105.269C54.0344 103.029 55.1765 101.101 56.5783 99.4865H49.8479V97.8532H58.7561V99.158ZM69.4572 99.158C68.1055 100.641 66.9352 102.475 65.9465 104.659C64.9577 106.843 64.3757 109.099 64.2005 111.427H62.4733C62.5171 109.556 62.9771 107.503 63.8532 105.269C64.7356 103.029 65.8777 101.101 67.2794 99.4865H60.549V97.8532H69.4572V99.158ZM76.1126 107.296H70.9497V105.597H76.1126V107.296ZM84.88 104.95C84.5483 105.488 84.0915 105.923 83.5095 106.255C82.9338 106.586 82.308 106.752 81.6321 106.752C80.4994 106.752 79.5357 106.339 78.7409 105.513C77.9524 104.681 77.5582 103.595 77.5582 102.256C77.5582 100.891 77.9618 99.7744 78.7691 98.9046C79.5764 98.0347 80.6152 97.5998 81.8855 97.5998C83.1622 97.5998 84.2667 98.0973 85.1991 99.0923C86.1316 100.087 86.5978 101.808 86.5978 104.255C86.5978 106.74 86.1723 108.595 85.3212 109.822C84.4701 111.048 83.2529 111.661 81.6696 111.661C80.6371 111.661 79.7735 111.38 79.0788 110.817C78.3842 110.247 77.9618 109.387 77.8116 108.235L79.4262 108.104C79.6827 109.549 80.4431 110.272 81.7072 110.272C82.746 110.272 83.5408 109.8 84.0915 108.855C84.6422 107.904 84.9175 106.602 84.9175 104.95H84.88ZM82.0357 105.278C82.8618 105.278 83.5157 104.987 83.9976 104.405C84.4857 103.817 84.7298 103.075 84.7298 102.181C84.7298 101.273 84.4795 100.516 83.9788 99.909C83.4845 99.2957 82.8493 98.989 82.0733 98.989C81.291 98.989 80.6308 99.3145 80.0926 99.9653C79.5545 100.61 79.2854 101.392 79.2854 102.312C79.2854 103.182 79.5482 103.895 80.0739 104.452C80.6058 105.003 81.2597 105.278 82.0357 105.278ZM94.7175 103.983C96.4385 104.534 97.2989 105.707 97.2989 107.503C97.2989 108.686 96.8765 109.675 96.0317 110.469C95.1869 111.264 94.1011 111.661 92.7744 111.661C91.4352 111.661 90.3432 111.261 89.4984 110.46C88.6598 109.659 88.2405 108.654 88.2405 107.447C88.2405 106.577 88.4752 105.816 88.9445 105.166C89.4201 104.515 90.0585 104.121 90.8595 103.983V103.945C89.4827 103.52 88.7943 102.591 88.7943 101.157C88.7943 100.144 89.1573 99.2988 89.8832 98.6229C90.6092 97.9408 91.5604 97.5998 92.7369 97.5998C93.9321 97.5998 94.8959 97.9502 95.6281 98.6511C96.3665 99.352 96.7357 100.2 96.7357 101.195C96.7357 102.547 96.063 103.463 94.7175 103.945V103.983ZM92.7744 103.316C93.4065 103.316 93.9353 103.116 94.3608 102.716C94.7926 102.309 95.0085 101.802 95.0085 101.195C95.0085 100.575 94.7895 100.053 94.3514 99.6274C93.9196 99.2018 93.3877 98.989 92.7556 98.989C92.1111 98.989 91.5791 99.1987 91.1599 99.618C90.7406 100.037 90.5309 100.532 90.5309 101.101C90.5309 101.783 90.7468 102.325 91.1786 102.725C91.6104 103.119 92.1424 103.316 92.7744 103.316ZM92.7744 110.272C93.5692 110.272 94.2325 110.016 94.7645 109.502C95.2964 108.989 95.5623 108.323 95.5623 107.503C95.5623 106.683 95.287 106.01 94.7363 105.485C94.1918 104.959 93.5254 104.696 92.7369 104.696C91.9171 104.696 91.2506 104.969 90.7374 105.513C90.2243 106.051 89.9677 106.702 89.9677 107.465C89.9677 108.26 90.2306 108.927 90.7562 109.465C91.2881 110.003 91.9609 110.272 92.7744 110.272ZM105.344 111.427H103.654V100.66C102.809 101.461 101.68 102.14 100.265 102.697V101.064C102.211 100.131 103.538 98.9765 104.245 97.5998H105.344V111.427ZM111.877 103.157C112.715 102.581 113.585 102.293 114.486 102.293C115.632 102.293 116.63 102.7 117.481 103.514C118.332 104.321 118.758 105.4 118.758 106.752C118.758 108.116 118.326 109.277 117.462 110.235C116.599 111.186 115.466 111.661 114.064 111.661C112.919 111.661 111.927 111.339 111.088 110.695C110.25 110.044 109.768 109.083 109.643 107.813L111.408 107.681C111.551 108.551 111.858 109.202 112.327 109.634C112.797 110.059 113.376 110.272 114.064 110.272C114.921 110.272 115.616 109.95 116.148 109.305C116.68 108.654 116.946 107.857 116.946 106.912C116.946 105.948 116.674 105.188 116.129 104.631C115.585 104.074 114.884 103.795 114.026 103.795C112.944 103.795 112.112 104.236 111.53 105.119L109.934 104.931L111.276 97.8532H118.1V99.4865H112.618L111.877 103.157ZM122.578 103.157C123.417 102.581 124.286 102.293 125.188 102.293C126.333 102.293 127.331 102.7 128.182 103.514C129.033 104.321 129.459 105.4 129.459 106.752C129.459 108.116 129.027 109.277 128.163 110.235C127.3 111.186 126.167 111.661 124.765 111.661C123.62 111.661 122.628 111.339 121.79 110.695C120.951 110.044 120.469 109.083 120.344 107.813L122.109 107.681C122.253 108.551 122.559 109.202 123.029 109.634C123.498 110.059 124.077 110.272 124.765 110.272C125.623 110.272 126.317 109.95 126.849 109.305C127.381 108.654 127.647 107.857 127.647 106.912C127.647 105.948 127.375 105.188 126.83 104.631C126.286 104.074 125.585 103.795 124.728 103.795C123.645 103.795 122.813 104.236 122.231 105.119L120.635 104.931L121.977 97.8532H128.802V99.4865H123.32L122.578 103.157ZM138.386 104.95C138.054 105.488 137.597 105.923 137.015 106.255C136.439 106.586 135.814 106.752 135.138 106.752C134.005 106.752 133.041 106.339 132.247 105.513C131.458 104.681 131.064 103.595 131.064 102.256C131.064 100.891 131.467 99.7744 132.275 98.9046C133.082 98.0347 134.121 97.5998 135.391 97.5998C136.668 97.5998 137.772 98.0973 138.705 99.0923C139.637 100.087 140.103 101.808 140.103 104.255C140.103 106.74 139.678 108.595 138.827 109.822C137.976 111.048 136.759 111.661 135.175 111.661C134.143 111.661 133.279 111.38 132.585 110.817C131.89 110.247 131.467 109.387 131.317 108.235L132.932 108.104C133.188 109.549 133.949 110.272 135.213 110.272C136.252 110.272 137.046 109.8 137.597 108.855C138.148 107.904 138.423 106.602 138.423 104.95H138.386ZM135.541 105.278C136.367 105.278 137.021 104.987 137.503 104.405C137.991 103.817 138.235 103.075 138.235 102.181C138.235 101.273 137.985 100.516 137.485 99.909C136.99 99.2957 136.355 98.989 135.579 98.989C134.797 98.989 134.136 99.3145 133.598 99.9653C133.06 100.61 132.791 101.392 132.791 102.312C132.791 103.182 133.054 103.895 133.58 104.452C134.111 105.003 134.765 105.278 135.541 105.278ZM148.223 103.983C149.944 104.534 150.805 105.707 150.805 107.503C150.805 108.686 150.382 109.675 149.537 110.469C148.693 111.264 147.607 111.661 146.28 111.661C144.941 111.661 143.849 111.261 143.004 110.46C142.165 109.659 141.746 108.654 141.746 107.447C141.746 106.577 141.981 105.816 142.45 105.166C142.926 104.515 143.564 104.121 144.365 103.983V103.945C142.988 103.52 142.3 102.591 142.3 101.157C142.3 100.144 142.663 99.2988 143.389 98.6229C144.115 97.9408 145.066 97.5998 146.243 97.5998C147.438 97.5998 148.402 97.9502 149.134 98.6511C149.872 99.352 150.241 100.2 150.241 101.195C150.241 102.547 149.569 103.463 148.223 103.945V103.983ZM146.28 103.316C146.912 103.316 147.441 103.116 147.866 102.716C148.298 102.309 148.514 101.802 148.514 101.195C148.514 100.575 148.295 100.053 147.857 99.6274C147.425 99.2018 146.893 98.989 146.261 98.989C145.617 98.989 145.085 99.1987 144.666 99.618C144.246 100.037 144.037 100.532 144.037 101.101C144.037 101.783 144.253 102.325 144.684 102.725C145.116 103.119 145.648 103.316 146.28 103.316ZM146.28 110.272C147.075 110.272 147.738 110.016 148.27 109.502C148.802 108.989 149.068 108.323 149.068 107.503C149.068 106.683 148.793 106.01 148.242 105.485C147.698 104.959 147.031 104.696 146.243 104.696C145.423 104.696 144.756 104.969 144.243 105.513C143.73 106.051 143.473 106.702 143.473 107.465C143.473 108.26 143.736 108.927 144.262 109.465C144.794 110.003 145.467 110.272 146.28 110.272ZM154.156 104.33C154.932 103.116 156.036 102.509 157.469 102.509C158.596 102.509 159.553 102.925 160.342 103.758C161.13 104.59 161.525 105.654 161.525 106.949C161.525 108.257 161.13 109.371 160.342 110.291C159.56 111.205 158.518 111.661 157.216 111.661C155.895 111.661 154.769 111.173 153.837 110.197C152.91 109.221 152.447 107.484 152.447 104.987C152.447 102.534 152.867 100.691 153.705 99.4584C154.55 98.2193 155.77 97.5998 157.366 97.5998C158.399 97.5998 159.272 97.8876 159.985 98.4634C160.698 99.0391 161.133 99.8933 161.29 101.026L159.6 101.176C159.294 99.7181 158.518 98.989 157.272 98.989C156.409 98.989 155.667 99.4177 155.048 100.275C154.428 101.132 154.118 102.484 154.118 104.33H154.156ZM157.178 110.272C157.954 110.272 158.583 109.959 159.065 109.333C159.547 108.708 159.788 107.95 159.788 107.062C159.788 106.173 159.547 105.438 159.065 104.856C158.583 104.274 157.936 103.983 157.122 103.983C156.377 103.983 155.736 104.258 155.198 104.809C154.66 105.353 154.39 106.073 154.39 106.968C154.39 107.882 154.653 108.661 155.179 109.305C155.711 109.95 156.377 110.272 157.178 110.272ZM165.383 103.157C166.221 102.581 167.091 102.293 167.992 102.293C169.137 102.293 170.135 102.7 170.987 103.514C171.838 104.321 172.263 105.4 172.263 106.752C172.263 108.116 171.831 109.277 170.968 110.235C170.104 111.186 168.971 111.661 167.57 111.661C166.424 111.661 165.433 111.339 164.594 110.695C163.755 110.044 163.274 109.083 163.148 107.813L164.913 107.681C165.057 108.551 165.364 109.202 165.833 109.634C166.302 110.059 166.881 110.272 167.57 110.272C168.427 110.272 169.122 109.95 169.654 109.305C170.186 108.654 170.452 107.857 170.452 106.912C170.452 105.948 170.179 105.188 169.635 104.631C169.09 104.074 168.39 103.795 167.532 103.795C166.45 103.795 165.617 104.236 165.035 105.119L163.439 104.931L164.782 97.8532H171.606V99.4865H166.124L165.383 103.157ZM178.383 97.5998C181.375 97.5998 182.87 99.9465 182.87 104.64C182.87 107.012 182.482 108.777 181.706 109.934C180.937 111.086 179.829 111.661 178.383 111.661C175.398 111.661 173.906 109.321 173.906 104.64C173.906 102.268 174.291 100.503 175.06 99.3457C175.836 98.1818 176.944 97.5998 178.383 97.5998ZM178.383 110.272C179.291 110.272 179.976 109.834 180.439 108.958C180.902 108.076 181.134 106.636 181.134 104.64C181.134 103.251 181.031 102.159 180.824 101.364C180.624 100.563 180.317 99.9684 179.904 99.5804C179.497 99.1862 178.984 98.989 178.365 98.989C177.457 98.989 176.775 99.4365 176.318 100.331C175.862 101.226 175.633 102.662 175.633 104.64C175.633 106.01 175.736 107.096 175.943 107.897C176.149 108.698 176.456 109.296 176.863 109.69C177.27 110.078 177.776 110.272 178.383 110.272Z" fill="white"/>
<path d="M106.458 54.5295C105.951 54.5295 105.525 54.3933 105.183 54.121C104.839 53.8497 104.667 53.5131 104.667 53.1113V50.2748H101.083C100.576 50.2748 100.15 50.1386 99.8077 49.8663C99.4637 49.595 99.2917 49.2584 99.2917 48.8565C99.2917 48.4547 99.4637 48.1176 99.8077 47.8453C100.15 47.574 100.576 47.4383 101.083 47.4383H104.667V44.6018C104.667 44.2 104.839 43.8629 105.183 43.5906C105.525 43.3193 105.951 43.1836 106.458 43.1836C106.966 43.1836 107.391 43.3193 107.734 43.5906C108.078 43.8629 108.25 44.2 108.25 44.6018V47.4383H111.833C112.341 47.4383 112.766 47.574 113.109 47.8453C113.453 48.1176 113.625 48.4547 113.625 48.8565C113.625 49.2584 113.453 49.595 113.109 49.8663C112.766 50.1386 112.341 50.2748 111.833 50.2748H108.25V53.1113C108.25 53.5131 108.078 53.8497 107.734 54.121C107.391 54.3933 106.966 54.5295 106.458 54.5295ZM111.744 68.7828C107.892 68.7828 104.137 68.103 100.48 66.7434C96.821 65.3847 93.581 63.5883 90.7597 61.3541C87.9373 59.1208 85.6678 56.5562 83.9514 53.6601C82.2338 50.765 81.375 47.7929 81.375 44.7437C81.375 44.3182 81.5542 43.9636 81.9125 43.68C82.2708 43.3963 82.7188 43.2545 83.2563 43.2545H90.5125C90.9306 43.2545 91.3038 43.3609 91.6323 43.5736C91.9608 43.7863 92.1549 44.0582 92.2146 44.3891L93.3792 49.3529C93.4389 49.6838 93.4317 49.985 93.3577 50.2563C93.2824 50.5286 93.1104 50.7712 92.8417 50.9839L88.5417 54.4586C89.7958 56.1605 91.3635 57.756 93.2448 59.2451C95.126 60.7343 97.2014 62.0225 99.4708 63.1098L103.681 59.777C103.95 59.5642 104.301 59.4045 104.735 59.2976C105.167 59.1917 105.592 59.1624 106.01 59.2097L112.192 60.2024C112.61 60.2734 112.953 60.4327 113.222 60.6804C113.491 60.9291 113.625 61.2188 113.625 61.5498V67.2936C113.625 67.7191 113.446 68.0737 113.088 68.3573C112.729 68.641 112.281 68.7828 111.744 68.7828Z" fill="white"/>
</svg>
