<svg width="214" height="172" viewBox="0 0 214 172" fill="none" xmlns="http://www.w3.org/2000/svg">
<path d="M15 29.5185C15 20.682 22.1634 13.5186 31 13.5186H214V151.878C214 162.924 205.046 171.878 194 171.878H15V29.5185Z" fill="#6B6B6B"/>
<path d="M0 16C0 7.16344 7.16344 0 16 0H199V138.36C199 149.405 190.046 158.36 179 158.36H0V16Z" fill="#111827"/>
<path d="M123 36.5293H83C80.25 36.5293 78.025 38.4484 78.025 40.7941L78 66.3827C78 68.7283 80.25 70.6475 83 70.6475H123C125.75 70.6475 128 68.7283 128 66.3827V40.7941C128 38.4484 125.75 36.5293 123 36.5293ZM123 66.3827H83V45.0588L103 55.7208L123 45.0588V66.3827ZM103 51.456L83 40.7941H123L103 51.456Z" fill="white"/>
<path d="M14.4363 109H12.7673C12.6143 108.706 12.5053 108.32 12.4406 107.843C11.375 108.762 10.224 109.221 8.98773 109.221C7.99868 109.221 7.21862 108.974 6.64757 108.479C6.07651 107.984 5.79098 107.331 5.79098 106.519C5.79098 105.741 6.06473 105.103 6.61224 104.602C7.16564 104.096 8.12231 103.76 9.48226 103.596L10.9658 103.375C11.5192 103.286 11.9755 103.178 12.3346 103.048C12.3346 102.571 12.3199 102.236 12.2905 102.041C12.261 101.841 12.1727 101.635 12.0255 101.423C11.8842 101.211 11.6546 101.04 11.3367 100.911C11.0188 100.781 10.592 100.717 10.0563 100.717C9.37334 100.717 8.83172 100.843 8.43139 101.096C8.03695 101.35 7.76614 101.821 7.61896 102.509L6.06473 102.306C6.23546 101.347 6.67406 100.625 7.38052 100.143C8.08699 99.6599 9.05838 99.4186 10.2947 99.4186C11.4191 99.4186 12.2434 99.5864 12.7673 99.9219C13.2972 100.252 13.621 100.652 13.7387 101.123C13.8623 101.594 13.9242 102.2 13.9242 102.942V105.079C13.9242 106.38 13.9477 107.254 13.9948 107.702C14.0478 108.143 14.195 108.576 14.4363 109ZM12.3346 104.876V104.302C11.5045 104.579 10.489 104.799 9.28798 104.964C8.08699 105.123 7.48649 105.63 7.48649 106.483C7.48649 106.913 7.64839 107.269 7.97219 107.552C8.29598 107.828 8.76107 107.967 9.36746 107.967C10.1505 107.967 10.8393 107.734 11.4339 107.269C12.0344 106.798 12.3346 106 12.3346 104.876ZM24.0354 109H22.4371V103.304C22.4371 102.345 22.2634 101.685 21.916 101.326C21.5746 100.967 21.0977 100.787 20.4855 100.787C20.0145 100.787 19.567 100.902 19.1432 101.132C18.7252 101.361 18.4279 101.685 18.2513 102.103C18.0746 102.521 17.9863 103.113 17.9863 103.878V109H16.3968V99.6305H17.8274V100.955H17.8627C18.1983 100.443 18.6104 100.06 19.099 99.8071C19.5935 99.5481 20.1646 99.4186 20.8122 99.4186C21.3067 99.4186 21.7954 99.5069 22.2781 99.6835C22.7609 99.8601 23.1376 100.125 23.4085 100.478C23.6852 100.831 23.8588 101.208 23.9295 101.609C24.0001 102.009 24.0354 102.551 24.0354 103.233V109ZM31.6741 102.253C31.6035 101.741 31.3945 101.358 31.0471 101.105C30.7057 100.846 30.2288 100.717 29.6165 100.717C29.0101 100.717 28.5186 100.82 28.1418 101.026C27.7709 101.232 27.5854 101.532 27.5854 101.927C27.5854 102.297 27.7326 102.562 28.027 102.721C28.3272 102.88 28.9159 103.075 29.7931 103.304C30.7822 103.557 31.521 103.781 32.0097 103.975C32.5042 104.17 32.8869 104.443 33.1577 104.797C33.4344 105.144 33.5727 105.63 33.5727 106.254C33.5727 107.09 33.2313 107.793 32.5483 108.364C31.8654 108.935 30.9529 109.221 29.8108 109.221C28.6216 109.221 27.6914 108.971 27.0203 108.47C26.355 107.964 25.9458 107.207 25.7928 106.201L27.3735 105.962C27.4559 106.616 27.6973 107.104 28.0976 107.428C28.5038 107.752 29.069 107.914 29.7931 107.914C30.4878 107.914 31.0206 107.77 31.3915 107.481C31.7624 107.187 31.9479 106.831 31.9479 106.413C31.9479 106.13 31.8625 105.903 31.6918 105.733C31.521 105.562 31.3061 105.435 31.0471 105.353C30.794 105.265 30.22 105.111 29.3251 104.894C27.9946 104.576 27.1145 104.19 26.6847 103.737C26.2608 103.284 26.0489 102.742 26.0489 102.112C26.0489 101.329 26.3609 100.684 26.9849 100.178C27.609 99.6717 28.4479 99.4186 29.5017 99.4186C30.6203 99.4186 31.4887 99.6393 32.1068 100.081C32.7309 100.517 33.1047 101.17 33.2283 102.041L31.6741 102.253ZM43.6134 109H41.9443C41.7913 108.706 41.6824 108.32 41.6176 107.843C40.552 108.762 39.4011 109.221 38.1647 109.221C37.1757 109.221 36.3956 108.974 35.8246 108.479C35.2535 107.984 34.968 107.331 34.968 106.519C34.968 105.741 35.2417 105.103 35.7893 104.602C36.3427 104.096 37.2993 103.76 38.6593 103.596L40.1428 103.375C40.6962 103.286 41.1525 103.178 41.5116 103.048C41.5116 102.571 41.4969 102.236 41.4675 102.041C41.438 101.841 41.3497 101.635 41.2025 101.423C41.0613 101.211 40.8317 101.04 40.5137 100.911C40.1958 100.781 39.769 100.717 39.2333 100.717C38.5504 100.717 38.0087 100.843 37.6084 101.096C37.214 101.35 36.9432 101.821 36.796 102.509L35.2417 102.306C35.4125 101.347 35.8511 100.625 36.5575 100.143C37.264 99.6599 38.2354 99.4186 39.4717 99.4186C40.5962 99.4186 41.4204 99.5864 41.9443 99.9219C42.4742 100.252 42.798 100.652 42.9157 101.123C43.0394 101.594 43.1012 102.2 43.1012 102.942V105.079C43.1012 106.38 43.1247 107.254 43.1718 107.702C43.2248 108.143 43.372 108.576 43.6134 109ZM41.5116 104.876V104.302C40.6815 104.579 39.666 104.799 38.465 104.964C37.264 105.123 36.6635 105.63 36.6635 106.483C36.6635 106.913 36.8254 107.269 37.1492 107.552C37.473 107.828 37.9381 107.967 38.5445 107.967C39.3275 107.967 40.0163 107.734 40.6109 107.269C41.2114 106.798 41.5116 106 41.5116 104.876ZM50.6074 99.9219L50.0599 101.388C49.6654 101.158 49.2798 101.043 48.903 101.043C48.3084 101.043 47.858 101.311 47.5519 101.847C47.2458 102.377 47.0927 103.122 47.0927 104.081V109H45.5032V99.6305H46.9514V101.043H46.9867C47.493 99.9602 48.1553 99.4186 48.9737 99.4186C49.5153 99.4186 50.0599 99.5864 50.6074 99.9219ZM53.1683 109H51.5788V99.6305H53.1683V109ZM53.1683 97.8555H51.5788V96.054H53.1683V97.8555ZM68.3043 109H66.7148V103.083C66.7148 102.648 66.6853 102.277 66.6265 101.971C66.5676 101.659 66.4145 101.385 66.1673 101.149C65.9259 100.908 65.5462 100.787 65.0281 100.787C64.404 100.787 63.8654 101.005 63.412 101.441C62.9587 101.876 62.7321 102.583 62.7321 103.56V109H61.1425V102.907C61.1425 102.094 60.9983 101.538 60.7098 101.238C60.4272 100.937 60.024 100.787 59.5 100.787C58.8171 100.787 58.2549 101.023 57.8133 101.494C57.3777 101.965 57.1598 102.845 57.1598 104.134V109H55.5703V99.6305H57.0009V100.937H57.0362C57.672 99.9249 58.6051 99.4186 59.8356 99.4186C60.5244 99.4186 61.0895 99.5569 61.5311 99.8336C61.9785 100.104 62.3023 100.514 62.5025 101.061C63.1972 99.9661 64.1597 99.4186 65.3902 99.4186C66.3615 99.4186 67.0886 99.6805 67.5714 100.205C68.06 100.728 68.3043 101.514 68.3043 102.562V109ZM72.2605 109.503C72.2605 110.122 72.2193 110.651 72.1369 111.093C72.0545 111.54 71.8396 111.932 71.4922 112.267C71.1508 112.609 70.618 112.78 69.8939 112.78C69.4759 112.78 69.0608 112.727 68.6487 112.621L68.9578 111.278C69.2522 111.361 69.4994 111.402 69.6996 111.402C70.041 111.402 70.2883 111.287 70.4414 111.058C70.5944 110.828 70.671 110.298 70.671 109.468V99.6305H72.2605V109.503ZM72.2605 97.8555H70.671V96.054H72.2605V97.8555ZM80.2701 109H78.6805V98.8711C77.8858 99.6246 76.8231 100.263 75.4926 100.787V99.2508C77.3235 98.3736 78.5716 97.2874 79.2369 95.9922H80.2701V109ZM92.7745 105.909H91.026V109H89.4365V105.909H83.8289V104.443L89.719 96.054H91.026V104.443H92.7745V105.909ZM89.4365 104.443V98.5973H89.4011L85.3831 104.443H89.4365ZM111.363 108.841C110.728 110.036 109.733 110.993 108.379 111.711C107.025 112.435 105.42 112.797 103.566 112.797C100.716 112.797 98.5145 112.073 96.9603 110.625C95.412 109.183 94.6378 107.26 94.6378 104.858C94.6378 103.334 94.9822 101.853 95.671 100.416C96.3598 98.9741 97.3606 97.8467 98.6735 97.0342C99.9863 96.2218 101.552 95.8156 103.371 95.8156C105.662 95.8156 107.493 96.4897 108.864 97.8378C110.242 99.186 110.931 100.808 110.931 102.704C110.931 104.37 110.371 105.842 109.253 107.119C108.14 108.397 106.927 109.035 105.615 109.035C104.525 109.035 103.957 108.541 103.91 107.552C103.057 108.529 102.153 109.018 101.199 109.018C100.298 109.018 99.5389 108.635 98.9208 107.87C98.3085 107.104 98.0024 106.168 98.0024 105.061C98.0024 103.678 98.4674 102.395 99.3976 101.211C100.334 100.028 101.393 99.4362 102.577 99.4362C103.695 99.4362 104.587 99.9779 105.252 101.061L105.562 99.6835H107.133C106.268 103.752 105.794 105.945 105.712 106.262C105.635 106.574 105.597 106.813 105.597 106.978C105.597 107.166 105.662 107.313 105.791 107.419C105.927 107.519 106.065 107.569 106.206 107.569C106.577 107.569 107.051 107.343 107.628 106.889C108.205 106.436 108.682 105.836 109.059 105.088C109.435 104.34 109.624 103.534 109.624 102.668C109.624 101.038 109.014 99.7012 107.796 98.6591C106.583 97.6171 105.085 97.0961 103.301 97.0961C101.14 97.0961 99.3711 97.832 97.9935 99.3038C96.6218 100.776 95.9359 102.58 95.9359 104.717C95.9359 106.913 96.6218 108.591 97.9935 109.751C99.3711 110.916 101.223 111.499 103.548 111.499C104.967 111.499 106.209 111.264 107.275 110.793C108.346 110.322 109.179 109.671 109.774 108.841H111.363ZM101.526 107.72C102.321 107.72 103.057 107.269 103.734 106.368C104.411 105.468 104.749 104.434 104.749 103.269C104.749 102.462 104.552 101.838 104.157 101.397C103.763 100.955 103.277 100.734 102.7 100.734C101.823 100.734 101.09 101.226 100.501 102.209C99.9186 103.186 99.6272 104.172 99.6272 105.167C99.6272 105.95 99.8156 106.572 100.192 107.031C100.569 107.49 101.014 107.72 101.526 107.72ZM120.874 107.737C120.874 109.068 120.742 110.06 120.477 110.713C120.212 111.373 119.741 111.885 119.064 112.25C118.387 112.615 117.577 112.797 116.635 112.797C115.576 112.797 114.693 112.562 113.986 112.091C113.28 111.62 112.926 110.849 112.926 109.777L114.472 110.016C114.531 110.51 114.737 110.881 115.09 111.128C115.449 111.375 115.958 111.499 116.618 111.499C117.442 111.499 118.045 111.331 118.428 110.996C118.811 110.66 119.043 110.251 119.126 109.768C119.214 109.286 119.258 108.62 119.258 107.773C118.569 108.591 117.701 109 116.653 109C115.434 109 114.454 108.55 113.712 107.649C112.976 106.748 112.609 105.612 112.609 104.24C112.609 102.863 112.968 101.715 113.686 100.796C114.404 99.8778 115.399 99.4186 116.671 99.4186C117.777 99.4186 118.678 99.863 119.373 100.752H119.408V99.6305H120.874V107.737ZM116.803 107.702C117.48 107.702 118.081 107.434 118.605 106.898C119.129 106.357 119.391 105.453 119.391 104.187C119.391 103.069 119.14 102.212 118.64 101.617C118.14 101.017 117.521 100.717 116.785 100.717C116.032 100.717 115.417 101.023 114.94 101.635C114.469 102.247 114.233 103.086 114.233 104.152C114.233 105.382 114.481 106.283 114.975 106.854C115.476 107.419 116.085 107.702 116.803 107.702ZM135.966 109H134.376V103.083C134.376 102.648 134.347 102.277 134.288 101.971C134.229 101.659 134.076 101.385 133.829 101.149C133.588 100.908 133.208 100.787 132.69 100.787C132.066 100.787 131.527 101.005 131.074 101.441C130.62 101.876 130.394 102.583 130.394 103.56V109H128.804V102.907C128.804 102.094 128.66 101.538 128.372 101.238C128.089 100.937 127.686 100.787 127.162 100.787C126.479 100.787 125.917 101.023 125.475 101.494C125.039 101.965 124.822 102.845 124.822 104.134V109H123.232V99.6305H124.663V100.937H124.698C125.334 99.9249 126.267 99.4186 127.497 99.4186C128.186 99.4186 128.751 99.5569 129.193 99.8336C129.64 100.104 129.964 100.514 130.164 101.061C130.859 99.9661 131.821 99.4186 133.052 99.4186C134.023 99.4186 134.75 99.6805 135.233 100.205C135.722 100.728 135.966 101.514 135.966 102.562V109ZM146.457 109H144.788C144.635 108.706 144.526 108.32 144.461 107.843C143.396 108.762 142.245 109.221 141.008 109.221C140.019 109.221 139.239 108.974 138.668 108.479C138.097 107.984 137.812 107.331 137.812 106.519C137.812 105.741 138.085 105.103 138.633 104.602C139.186 104.096 140.143 103.76 141.503 103.596L142.987 103.375C143.54 103.286 143.996 103.178 144.355 103.048C144.355 102.571 144.341 102.236 144.311 102.041C144.282 101.841 144.193 101.635 144.046 101.423C143.905 101.211 143.675 101.04 143.357 100.911C143.04 100.781 142.613 100.717 142.077 100.717C141.394 100.717 140.852 100.843 140.452 101.096C140.058 101.35 139.787 101.821 139.64 102.509L138.085 102.306C138.256 101.347 138.695 100.625 139.401 100.143C140.108 99.6599 141.079 99.4186 142.315 99.4186C143.44 99.4186 144.264 99.5864 144.788 99.9219C145.318 100.252 145.642 100.652 145.759 101.123C145.883 101.594 145.945 102.2 145.945 102.942V105.079C145.945 106.38 145.968 107.254 146.015 107.702C146.068 108.143 146.216 108.576 146.457 109ZM144.355 104.876V104.302C143.525 104.579 142.51 104.799 141.309 104.964C140.108 105.123 139.507 105.63 139.507 106.483C139.507 106.913 139.669 107.269 139.993 107.552C140.317 107.828 140.782 107.967 141.388 107.967C142.171 107.967 142.86 107.734 143.455 107.269C144.055 106.798 144.355 106 144.355 104.876ZM149.989 109H148.4V99.6305H149.989V109ZM149.989 97.8555H148.4V96.054H149.989V97.8555ZM154.016 109H152.427V96.054H154.016V109ZM158.661 109H156.851V107.19H158.661V109ZM169.161 105.759C168.955 106.954 168.484 107.831 167.748 108.391C167.012 108.944 166.179 109.221 165.249 109.221C163.889 109.221 162.838 108.776 162.096 107.887C161.355 106.992 160.984 105.809 160.984 104.337C160.984 103.119 161.196 102.144 161.62 101.414C162.049 100.678 162.585 100.163 163.227 99.8689C163.868 99.5687 164.543 99.4186 165.249 99.4186C166.215 99.4186 167.039 99.6688 167.722 100.169C168.41 100.67 168.834 101.405 168.993 102.377L167.457 102.615C167.298 101.985 167.039 101.511 166.68 101.194C166.326 100.876 165.873 100.717 165.32 100.717C164.431 100.717 163.757 101.032 163.297 101.662C162.838 102.292 162.609 103.172 162.609 104.302C162.609 105.456 162.832 106.348 163.28 106.978C163.733 107.602 164.384 107.914 165.231 107.914C165.914 107.914 166.45 107.72 166.839 107.331C167.233 106.937 167.48 106.348 167.58 105.565L169.161 105.759ZM174.345 99.4186C175.611 99.4186 176.658 99.8307 177.489 100.655C178.325 101.479 178.743 102.651 178.743 104.17C178.743 106.012 178.292 107.316 177.391 108.082C176.491 108.841 175.475 109.221 174.345 109.221C173.161 109.221 172.134 108.829 171.263 108.046C170.391 107.263 169.956 106.021 169.956 104.32C169.956 102.671 170.377 101.444 171.219 100.637C172.061 99.8248 173.103 99.4186 174.345 99.4186ZM174.345 107.914C175.251 107.914 175.94 107.578 176.411 106.907C176.882 106.236 177.118 105.353 177.118 104.258C177.118 103.086 176.85 102.203 176.314 101.609C175.784 101.014 175.128 100.717 174.345 100.717C173.538 100.717 172.876 101.02 172.358 101.626C171.84 102.227 171.581 103.125 171.581 104.32C171.581 105.509 171.843 106.407 172.367 107.013C172.897 107.614 173.556 107.914 174.345 107.914ZM193.296 109H191.706V103.083C191.706 102.648 191.677 102.277 191.618 101.971C191.559 101.659 191.406 101.385 191.159 101.149C190.917 100.908 190.538 100.787 190.019 100.787C189.395 100.787 188.857 101.005 188.403 101.441C187.95 101.876 187.723 102.583 187.723 103.56V109H186.134V102.907C186.134 102.094 185.99 101.538 185.701 101.238C185.419 100.937 185.015 100.787 184.491 100.787C183.808 100.787 183.246 101.023 182.805 101.494C182.369 101.965 182.151 102.845 182.151 104.134V109H180.562V99.6305H181.992V100.937H182.028C182.663 99.9249 183.597 99.4186 184.827 99.4186C185.516 99.4186 186.081 99.5569 186.522 99.8336C186.97 100.104 187.294 100.514 187.494 101.061C188.189 99.9661 189.151 99.4186 190.382 99.4186C191.353 99.4186 192.08 99.6805 192.563 100.205C193.051 100.728 193.296 101.514 193.296 102.562V109Z" fill="white"/>
</svg>
